<svg xmlns="http://www.w3.org/2000/svg" xmlns:xlink="http://www.w3.org/1999/xlink" width="500" zoomAndPan="magnify" viewBox="0 0 375 374.999991" height="500" preserveAspectRatio="xMidYMid meet" version="1.0"><defs><clipPath id="64670d4dfb"><path d="M 45 1.613281 L 347 1.613281 L 347 373 L 45 373 Z M 45 1.613281 " clip-rule="nonzero"/></clipPath></defs><g clip-path="url(#64670d4dfb)"><path fill="#ff9c08" d="M 297.125 198.746094 C 297.65625 254.898438 346.324219 273.582031 346.863281 273.816406 C 346.453125 275.140625 339.085938 300.453125 321.214844 326.597656 C 305.777344 349.195312 289.746094 371.726562 264.488281 372.1875 C 239.675781 372.648438 231.695312 357.457031 203.324219 357.457031 C 174.964844 357.457031 166.101562 371.726562 142.617188 372.648438 C 118.242188 373.566406 99.679688 348.207031 84.105469 325.6875 C 52.28125 279.613281 27.964844 195.511719 60.617188 138.730469 C 76.839844 110.539062 105.832031 92.683594 137.296875 92.226562 C 161.234375 91.769531 183.828125 108.347656 198.457031 108.347656 C 213.085938 108.347656 240.535156 88.410156 269.402344 91.335938 C 281.484375 91.839844 315.394531 96.226562 337.175781 128.144531 C 335.417969 129.230469 296.710938 151.796875 297.125 198.746094 M 250.496094 60.863281 C 263.4375 45.175781 272.148438 23.339844 269.765625 1.617188 C 251.121094 2.367188 228.558594 14.0625 215.183594 29.738281 C 203.195312 43.621094 192.691406 65.839844 195.523438 87.136719 C 216.3125 88.746094 237.554688 76.554688 250.496094 60.859375 " fill-opacity="1" fill-rule="nonzero"/></g></svg>