<svg xmlns="http://www.w3.org/2000/svg" xmlns:xlink="http://www.w3.org/1999/xlink" width="500" zoomAndPan="magnify" viewBox="0 0 375 374.999991" height="500" preserveAspectRatio="xMidYMid meet" version="1.0"><defs><clipPath id="a378e8931b"><path d="M 21.0625 3 L 354 3 L 354 372.316406 L 21.0625 372.316406 Z M 21.0625 3 " clip-rule="nonzero"/></clipPath></defs><g clip-path="url(#a378e8931b)"><path fill="#ffffff" d="M 53.308594 372.125 C 52.28125 372.125 51.257812 372.074219 50.234375 371.972656 C 49.214844 371.871094 48.199219 371.722656 47.191406 371.523438 C 46.183594 371.320312 45.1875 371.074219 44.203125 370.773438 C 43.222656 370.476562 42.253906 370.132812 41.308594 369.738281 C 40.359375 369.347656 39.429688 368.90625 38.523438 368.425781 C 37.617188 367.941406 36.738281 367.414062 35.882812 366.84375 C 35.03125 366.273438 34.207031 365.660156 33.410156 365.011719 C 32.617188 364.359375 31.855469 363.671875 31.128906 362.945312 C 30.402344 362.21875 29.714844 361.460938 29.0625 360.667969 C 28.410156 359.875 27.800781 359.050781 27.230469 358.195312 C 26.65625 357.34375 26.128906 356.464844 25.644531 355.558594 C 25.160156 354.652344 24.722656 353.726562 24.328125 352.777344 C 23.9375 351.828125 23.589844 350.863281 23.292969 349.882812 C 22.992188 348.898438 22.742188 347.90625 22.542969 346.898438 C 22.34375 345.890625 22.191406 344.878906 22.089844 343.855469 C 21.988281 342.835938 21.9375 341.808594 21.9375 340.785156 L 21.9375 35.0625 C 21.9375 33.691406 22.023438 32.328125 22.203125 30.96875 C 22.378906 29.609375 22.644531 28.265625 23 26.941406 C 23.355469 25.617188 23.792969 24.324219 24.316406 23.054688 C 24.839844 21.789062 25.445312 20.5625 26.128906 19.375 C 26.8125 18.1875 27.574219 17.050781 28.40625 15.960938 C 29.242188 14.875 30.144531 13.84375 31.113281 12.875 C 32.082031 11.90625 33.109375 11.003906 34.199219 10.167969 C 35.285156 9.332031 36.421875 8.574219 37.609375 7.886719 C 38.796875 7.203125 40.023438 6.597656 41.292969 6.070312 C 42.558594 5.546875 43.855469 5.105469 45.179688 4.75 C 46.503906 4.394531 47.84375 4.128906 49.203125 3.949219 C 50.566406 3.769531 51.929688 3.679688 53.300781 3.679688 C 54.671875 3.679688 56.039062 3.769531 57.398438 3.945312 C 58.757812 4.125 60.101562 4.390625 61.425781 4.746094 C 62.75 5.101562 64.046875 5.539062 65.3125 6.066406 C 66.582031 6.589844 67.808594 7.195312 68.996094 7.878906 L 338.808594 163.117188 C 339.890625 163.742188 340.929688 164.433594 341.921875 165.195312 C 342.917969 165.957031 343.855469 166.777344 344.742188 167.660156 C 345.625 168.542969 346.449219 169.480469 347.210938 170.472656 C 347.972656 171.464844 348.667969 172.5 349.292969 173.582031 C 349.917969 174.664062 350.472656 175.785156 350.949219 176.9375 C 351.429688 178.09375 351.832031 179.273438 352.15625 180.480469 C 352.480469 181.6875 352.722656 182.914062 352.886719 184.152344 C 353.050781 185.390625 353.132812 186.636719 353.132812 187.886719 C 353.132812 189.136719 353.050781 190.378906 352.886719 191.621094 C 352.722656 192.859375 352.480469 194.082031 352.15625 195.289062 C 351.832031 196.496094 351.429688 197.679688 350.949219 198.832031 C 350.472656 199.988281 349.917969 201.105469 349.292969 202.1875 C 348.667969 203.269531 347.972656 204.308594 347.210938 205.296875 C 346.449219 206.289062 345.625 207.226562 344.742188 208.109375 C 343.855469 208.992188 342.917969 209.816406 341.921875 210.574219 C 340.929688 211.335938 339.890625 212.027344 338.808594 212.652344 L 68.996094 367.9375 C 66.609375 369.3125 64.089844 370.351562 61.429688 371.0625 C 58.769531 371.773438 56.0625 372.125 53.308594 372.125 Z M 50.542969 335.988281 Z M 58.847656 44.613281 L 58.847656 331.210938 L 307.898438 187.902344 Z M 58.847656 35.023438 Z M 58.847656 35.023438 " fill-opacity="1" fill-rule="nonzero"/></g><path fill="#ffffff" d="M 49.617188 363.097656 C 48.730469 363.097656 47.84375 363.035156 46.960938 362.90625 C 46.082031 362.777344 45.214844 362.585938 44.359375 362.335938 C 43.507812 362.082031 42.675781 361.769531 41.871094 361.394531 C 41.0625 361.019531 40.285156 360.589844 39.539062 360.105469 C 38.792969 359.621094 38.085938 359.082031 37.417969 358.496094 C 36.75 357.90625 36.128906 357.273438 35.550781 356.597656 C 34.976562 355.917969 34.449219 355.203125 33.976562 354.449219 C 33.503906 353.695312 33.089844 352.910156 32.730469 352.097656 C 32.371094 351.285156 32.074219 350.449219 31.835938 349.589844 C 31.597656 348.734375 31.421875 347.863281 31.308594 346.980469 C 31.195312 346.097656 31.148438 345.214844 31.164062 344.324219 C 31.179688 343.433594 31.261719 342.550781 31.402344 341.671875 C 31.546875 340.796875 31.753906 339.933594 32.023438 339.085938 C 32.292969 338.238281 32.621094 337.414062 33.007812 336.613281 C 33.398438 335.8125 33.839844 335.042969 34.339844 334.308594 C 34.839844 333.570312 35.390625 332.875 35.992188 332.21875 L 229.757812 120.140625 C 230.164062 119.695312 230.59375 119.269531 231.042969 118.867188 C 231.492188 118.460938 231.960938 118.082031 232.449219 117.722656 C 232.933594 117.367188 233.4375 117.03125 233.957031 116.722656 C 234.480469 116.414062 235.011719 116.132812 235.558594 115.878906 C 236.109375 115.621094 236.667969 115.390625 237.238281 115.191406 C 237.808594 114.988281 238.386719 114.816406 238.972656 114.671875 C 239.558594 114.527344 240.152344 114.414062 240.75 114.328125 C 241.351562 114.242188 241.953125 114.183594 242.554688 114.15625 C 243.160156 114.128906 243.761719 114.132812 244.367188 114.164062 C 244.972656 114.195312 245.570312 114.257812 246.167969 114.351562 C 246.765625 114.441406 247.359375 114.5625 247.945312 114.710938 C 248.53125 114.859375 249.109375 115.039062 249.675781 115.242188 C 250.246094 115.449219 250.800781 115.683594 251.347656 115.941406 C 251.894531 116.203125 252.425781 116.492188 252.941406 116.804688 C 253.460938 117.117188 253.960938 117.453125 254.445312 117.816406 C 254.929688 118.175781 255.394531 118.5625 255.839844 118.96875 C 256.285156 119.378906 256.710938 119.804688 257.117188 120.257812 C 257.519531 120.707031 257.902344 121.171875 258.257812 121.660156 C 258.617188 122.148438 258.953125 122.652344 259.261719 123.171875 C 259.570312 123.691406 259.851562 124.222656 260.109375 124.769531 C 260.363281 125.316406 260.59375 125.875 260.792969 126.445312 C 260.996094 127.015625 261.167969 127.59375 261.3125 128.179688 C 261.457031 128.769531 261.574219 129.359375 261.660156 129.957031 C 261.746094 130.554688 261.800781 131.15625 261.828125 131.761719 C 261.855469 132.363281 261.851562 132.96875 261.820312 133.570312 C 261.789062 134.175781 261.726562 134.777344 261.636719 135.371094 C 261.542969 135.96875 261.425781 136.5625 261.273438 137.148438 C 261.125 137.734375 260.949219 138.308594 260.742188 138.878906 C 260.535156 139.445312 260.300781 140.003906 260.042969 140.546875 C 259.78125 141.09375 259.492188 141.625 259.179688 142.140625 C 258.867188 142.65625 258.53125 143.160156 258.167969 143.640625 C 257.804688 144.125 257.421875 144.589844 257.011719 145.039062 L 63.246094 357.113281 C 62.382812 358.058594 61.429688 358.902344 60.386719 359.648438 C 59.34375 360.394531 58.238281 361.023438 57.0625 361.539062 C 55.890625 362.054688 54.675781 362.445312 53.421875 362.707031 C 52.167969 362.96875 50.902344 363.097656 49.617188 363.097656 Z M 49.617188 363.097656 " fill-opacity="1" fill-rule="nonzero"/><path fill="#ffffff" d="M 243.382812 261.667969 C 242.101562 261.671875 240.832031 261.539062 239.578125 261.273438 C 238.324219 261.011719 237.109375 260.621094 235.9375 260.101562 C 234.765625 259.585938 233.65625 258.953125 232.613281 258.207031 C 231.574219 257.460938 230.621094 256.613281 229.757812 255.667969 L 35.992188 43.589844 C 35.582031 43.144531 35.199219 42.679688 34.835938 42.195312 C 34.472656 41.710938 34.136719 41.210938 33.824219 40.695312 C 33.507812 40.179688 33.222656 39.648438 32.960938 39.101562 C 32.699219 38.554688 32.46875 38 32.261719 37.433594 C 32.054688 36.863281 31.878906 36.285156 31.726562 35.703125 C 31.578125 35.117188 31.457031 34.523438 31.367188 33.925781 C 31.277344 33.328125 31.214844 32.730469 31.183594 32.125 C 31.148438 31.523438 31.148438 30.917969 31.175781 30.316406 C 31.203125 29.710938 31.257812 29.109375 31.34375 28.511719 C 31.429688 27.914062 31.546875 27.320312 31.691406 26.734375 C 31.835938 26.148438 32.007812 25.570312 32.210938 25 C 32.410156 24.429688 32.640625 23.871094 32.894531 23.324219 C 33.152344 22.777344 33.433594 22.242188 33.742188 21.722656 C 34.050781 21.203125 34.386719 20.699219 34.742188 20.214844 C 35.101562 19.726562 35.484375 19.257812 35.886719 18.808594 C 36.292969 18.359375 36.714844 17.933594 37.164062 17.523438 C 37.609375 17.117188 38.074219 16.730469 38.558594 16.371094 C 39.042969 16.007812 39.542969 15.671875 40.0625 15.355469 C 40.578125 15.042969 41.109375 14.757812 41.65625 14.496094 C 42.199219 14.238281 42.757812 14.003906 43.328125 13.796875 C 43.894531 13.589844 44.472656 13.414062 45.058594 13.265625 C 45.644531 13.113281 46.234375 12.996094 46.832031 12.902344 C 47.429688 12.8125 48.03125 12.75 48.636719 12.71875 C 49.238281 12.6875 49.84375 12.683594 50.449219 12.710938 C 51.050781 12.738281 51.652344 12.792969 52.25 12.882812 C 52.851562 12.96875 53.441406 13.082031 54.03125 13.226562 C 54.617188 13.371094 55.195312 13.542969 55.765625 13.746094 C 56.335938 13.945312 56.894531 14.175781 57.441406 14.429688 C 57.992188 14.6875 58.523438 14.96875 59.042969 15.277344 C 59.566406 15.585938 60.066406 15.917969 60.554688 16.277344 C 61.042969 16.636719 61.511719 17.015625 61.960938 17.421875 C 62.410156 17.824219 62.839844 18.25 63.246094 18.695312 L 257.011719 230.769531 C 257.613281 231.425781 258.164062 232.125 258.667969 232.859375 C 259.167969 233.597656 259.613281 234.367188 260.003906 235.167969 C 260.390625 235.96875 260.722656 236.792969 260.992188 237.640625 C 261.261719 238.488281 261.46875 239.351562 261.613281 240.230469 C 261.757812 241.109375 261.839844 241.996094 261.855469 242.882812 C 261.871094 243.773438 261.824219 244.660156 261.710938 245.542969 C 261.601562 246.429688 261.425781 247.300781 261.1875 248.15625 C 260.949219 249.015625 260.652344 249.851562 260.292969 250.667969 C 259.933594 251.480469 259.515625 252.265625 259.042969 253.019531 C 258.570312 253.773438 258.042969 254.492188 257.46875 255.167969 C 256.890625 255.847656 256.269531 256.480469 255.597656 257.070312 C 254.929688 257.660156 254.222656 258.195312 253.476562 258.679688 C 252.730469 259.167969 251.953125 259.597656 251.140625 259.96875 C 250.332031 260.34375 249.5 260.65625 248.648438 260.910156 C 247.792969 261.164062 246.925781 261.351562 246.042969 261.480469 C 245.160156 261.609375 244.273438 261.671875 243.382812 261.667969 Z M 243.382812 261.667969 " fill-opacity="1" fill-rule="nonzero"/></svg>