<svg xmlns="http://www.w3.org/2000/svg" xmlns:xlink="http://www.w3.org/1999/xlink" width="500" zoomAndPan="magnify" viewBox="0 0 375 374.999991" height="500" preserveAspectRatio="xMidYMid meet" version="1.0"><path fill="#000000" d="M 2.988281 181.628906 C 2.597656 182.015625 2.253906 182.4375 1.945312 182.890625 C 1.640625 183.347656 1.382812 183.828125 1.171875 184.332031 C 0.960938 184.839844 0.800781 185.359375 0.691406 185.898438 C 0.582031 186.433594 0.527344 186.976562 0.523438 187.523438 C 0.523438 188.074219 0.574219 188.617188 0.675781 189.152344 C 0.78125 189.691406 0.933594 190.214844 1.140625 190.722656 C 1.347656 191.230469 1.601562 191.710938 1.902344 192.171875 C 2.203125 192.628906 2.546875 193.054688 2.929688 193.445312 L 35.363281 226.480469 L 117.882812 308.898438 C 118.273438 309.289062 118.699219 309.636719 119.160156 309.945312 C 119.617188 310.25 120.101562 310.507812 120.613281 310.71875 C 121.121094 310.929688 121.648438 311.089844 122.1875 311.199219 C 122.730469 311.304688 123.277344 311.359375 123.828125 311.359375 C 124.378906 311.359375 124.925781 311.304688 125.46875 311.199219 C 126.007812 311.089844 126.535156 310.929688 127.042969 310.71875 C 127.554688 310.507812 128.039062 310.25 128.496094 309.945312 C 128.957031 309.636719 129.382812 309.289062 129.769531 308.898438 L 162.785156 275.929688 C 163.574219 275.144531 164.179688 274.234375 164.605469 273.207031 C 165.035156 272.179688 165.246094 271.109375 165.246094 269.992188 L 165.246094 269.96875 C 165.242188 268.851562 165.027344 267.777344 164.59375 266.75 C 164.160156 265.71875 163.546875 264.808594 162.75 264.023438 L 117.617188 219.421875 L 366.957031 219.421875 C 367.511719 219.421875 368.058594 219.367188 368.597656 219.257812 C 369.140625 219.152344 369.667969 218.992188 370.175781 218.78125 C 370.6875 218.570312 371.171875 218.3125 371.628906 218.003906 C 372.089844 217.699219 372.511719 217.351562 372.902344 216.960938 C 373.292969 216.570312 373.640625 216.148438 373.949219 215.6875 C 374.253906 215.230469 374.515625 214.746094 374.726562 214.238281 C 374.9375 213.726562 375.097656 213.203125 375.203125 212.660156 C 375.3125 212.121094 375.363281 211.574219 375.363281 211.023438 L 375.363281 164.746094 C 375.363281 164.195312 375.3125 163.648438 375.203125 163.109375 C 375.097656 162.566406 374.9375 162.042969 374.726562 161.53125 C 374.515625 161.023438 374.253906 160.539062 373.949219 160.082031 C 373.640625 159.621094 373.292969 159.199219 372.902344 158.808594 C 372.511719 158.417969 372.089844 158.070312 371.628906 157.765625 C 371.171875 157.457031 370.6875 157.199219 370.175781 156.988281 C 369.667969 156.777344 369.140625 156.617188 368.597656 156.511719 C 368.058594 156.402344 367.511719 156.351562 366.957031 156.351562 L 117.460938 156.351562 L 162.785156 111.082031 C 163.574219 110.292969 164.179688 109.386719 164.605469 108.359375 C 165.035156 107.328125 165.246094 106.257812 165.246094 105.144531 L 165.246094 105.105469 C 165.242188 103.984375 165.019531 102.90625 164.582031 101.875 C 164.144531 100.84375 163.527344 99.9375 162.726562 99.152344 L 129.714844 66.8125 C 129.320312 66.429688 128.898438 66.085938 128.4375 65.785156 C 127.980469 65.484375 127.496094 65.234375 126.988281 65.027344 C 126.480469 64.820312 125.957031 64.667969 125.417969 64.5625 C 124.878906 64.460938 124.335938 64.410156 123.789062 64.410156 C 123.238281 64.414062 122.695312 64.46875 122.160156 64.578125 C 121.621094 64.6875 121.097656 64.847656 120.59375 65.058594 C 120.085938 65.269531 119.605469 65.527344 119.148438 65.832031 C 118.695312 66.136719 118.273438 66.480469 117.886719 66.871094 Z M 2.988281 181.628906 " fill-opacity="1" fill-rule="nonzero"/></svg>