<svg xmlns="http://www.w3.org/2000/svg" xmlns:xlink="http://www.w3.org/1999/xlink" width="500" zoomAndPan="magnify" viewBox="0 0 375 374.999991" height="500" preserveAspectRatio="xMidYMid meet" version="1.0"><path fill="#ff9c08" d="M 372.414062 193.359375 C 372.800781 192.972656 373.148438 192.550781 373.453125 192.097656 C 373.757812 191.640625 374.015625 191.160156 374.226562 190.65625 C 374.4375 190.148438 374.597656 189.628906 374.707031 189.089844 C 374.816406 188.554688 374.871094 188.011719 374.875 187.464844 C 374.878906 186.917969 374.828125 186.375 374.722656 185.835938 C 374.621094 185.296875 374.464844 184.773438 374.257812 184.265625 C 374.050781 183.757812 373.800781 183.277344 373.5 182.816406 C 373.199219 182.359375 372.855469 181.9375 372.46875 181.542969 L 340.035156 148.507812 L 257.515625 66.089844 C 257.125 65.699219 256.699219 65.351562 256.242188 65.042969 C 255.78125 64.738281 255.296875 64.480469 254.789062 64.269531 C 254.277344 64.058594 253.753906 63.898438 253.210938 63.789062 C 252.671875 63.683594 252.125 63.628906 251.570312 63.628906 C 251.019531 63.628906 250.472656 63.683594 249.933594 63.789062 C 249.390625 63.898438 248.867188 64.058594 248.355469 64.269531 C 247.84375 64.480469 247.359375 64.738281 246.902344 65.042969 C 246.445312 65.351562 246.019531 65.699219 245.628906 66.089844 L 212.617188 99.058594 C 211.828125 99.84375 211.21875 100.753906 210.792969 101.78125 C 210.367188 102.808594 210.152344 103.882812 210.152344 104.996094 L 210.152344 105.019531 C 210.15625 106.136719 210.375 107.210938 210.804688 108.242188 C 211.238281 109.269531 211.851562 110.179688 212.648438 110.964844 L 257.78125 155.570312 L 8.441406 155.570312 C 7.890625 155.570312 7.34375 155.621094 6.800781 155.730469 C 6.261719 155.835938 5.734375 155.996094 5.222656 156.207031 C 4.714844 156.417969 4.230469 156.675781 3.769531 156.984375 C 3.3125 157.289062 2.886719 157.636719 2.496094 158.027344 C 2.105469 158.417969 1.757812 158.839844 1.453125 159.300781 C 1.144531 159.757812 0.886719 160.242188 0.675781 160.75 C 0.464844 161.261719 0.304688 161.785156 0.195312 162.328125 C 0.0898438 162.867188 0.0351562 163.414062 0.0351562 163.964844 L 0.0351562 210.242188 C 0.0351562 210.792969 0.0898438 211.339844 0.195312 211.878906 C 0.304688 212.421875 0.464844 212.945312 0.675781 213.457031 C 0.886719 213.964844 1.144531 214.449219 1.453125 214.90625 C 1.757812 215.367188 2.105469 215.789062 2.496094 216.179688 C 2.886719 216.570312 3.3125 216.917969 3.769531 217.222656 C 4.230469 217.53125 4.714844 217.789062 5.222656 218 C 5.734375 218.210938 6.261719 218.371094 6.800781 218.476562 C 7.34375 218.585938 7.890625 218.640625 8.441406 218.640625 L 257.9375 218.640625 L 212.617188 263.90625 C 211.828125 264.695312 211.21875 265.601562 210.792969 266.628906 C 210.367188 267.660156 210.152344 268.730469 210.152344 269.84375 L 210.152344 269.886719 C 210.160156 271.003906 210.378906 272.082031 210.816406 273.113281 C 211.253906 274.144531 211.871094 275.054688 212.671875 275.835938 L 245.6875 308.175781 C 246.078125 308.558594 246.503906 308.902344 246.960938 309.203125 C 247.421875 309.503906 247.902344 309.753906 248.414062 309.960938 C 248.921875 310.167969 249.445312 310.320312 249.980469 310.425781 C 250.519531 310.527344 251.0625 310.578125 251.613281 310.578125 C 252.160156 310.574219 252.703125 310.519531 253.242188 310.410156 C 253.777344 310.300781 254.300781 310.140625 254.808594 309.929688 C 255.3125 309.71875 255.792969 309.460938 256.25 309.15625 C 256.707031 308.851562 257.128906 308.507812 257.515625 308.117188 Z M 372.414062 193.359375 " fill-opacity="1" fill-rule="nonzero"/></svg>