<svg xmlns="http://www.w3.org/2000/svg" xmlns:xlink="http://www.w3.org/1999/xlink" width="500" zoomAndPan="magnify" viewBox="0 0 375 374.999991" height="500" preserveAspectRatio="xMidYMid meet" version="1.0"><path fill="#fa8c00" d="M 369.03125 346.410156 L 278.113281 255.488281 C 280.0625 253.058594 281.9375 250.570312 283.734375 248.023438 C 285.527344 245.476562 287.242188 242.875 288.875 240.21875 C 290.503906 237.5625 292.050781 234.855469 293.507812 232.101562 C 294.96875 229.347656 296.339844 226.550781 297.625 223.710938 C 298.90625 220.871094 300.097656 217.992188 301.199219 215.078125 C 302.300781 212.160156 303.308594 209.210938 304.222656 206.234375 C 305.140625 203.253906 305.957031 200.246094 306.683594 197.214844 C 307.410156 194.183594 308.035156 191.132812 308.570312 188.0625 C 309.101562 184.992188 309.535156 181.90625 309.871094 178.808594 C 310.210938 175.710938 310.449219 172.601562 310.589844 169.488281 C 310.730469 166.375 310.769531 163.261719 310.714844 160.144531 C 310.660156 157.027344 310.503906 153.917969 310.25 150.808594 C 309.996094 147.703125 309.648438 144.609375 309.199219 141.523438 C 308.75 138.4375 308.203125 135.371094 307.5625 132.320312 C 306.917969 129.273438 306.179688 126.246094 305.347656 123.242188 C 304.511719 120.238281 303.585938 117.265625 302.5625 114.320312 C 301.542969 111.375 300.425781 108.464844 299.222656 105.589844 C 298.015625 102.71875 296.71875 99.882812 295.335938 97.09375 C 293.949219 94.300781 292.480469 91.554688 290.921875 88.855469 C 289.363281 86.15625 287.71875 83.507812 285.992188 80.914062 C 284.269531 78.316406 282.460938 75.777344 280.574219 73.296875 C 278.6875 70.816406 276.726562 68.398438 274.6875 66.039062 C 272.648438 63.683594 270.535156 61.390625 268.351562 59.167969 C 266.167969 56.945312 263.917969 54.792969 261.597656 52.710938 C 259.277344 50.628906 256.894531 48.621094 254.445312 46.691406 C 252 44.761719 249.492188 42.910156 246.929688 41.136719 C 244.367188 39.363281 241.75 37.675781 239.078125 36.066406 C 236.40625 34.460938 233.6875 32.941406 230.921875 31.503906 C 228.152344 30.070312 225.34375 28.722656 222.492188 27.464844 C 219.640625 26.210938 216.75 25.042969 213.824219 23.96875 C 210.902344 22.894531 207.945312 21.914062 204.957031 21.023438 C 201.96875 20.136719 198.957031 19.34375 195.917969 18.644531 C 192.878906 17.949219 189.824219 17.347656 186.746094 16.84375 C 183.671875 16.339844 180.582031 15.933594 177.480469 15.625 C 174.378906 15.316406 171.269531 15.105469 168.15625 14.992188 C 165.042969 14.878906 161.925781 14.863281 158.808594 14.949219 C 155.695312 15.035156 152.585938 15.214844 149.480469 15.496094 C 146.375 15.777344 143.285156 16.15625 140.203125 16.632812 C 137.125 17.109375 134.0625 17.683594 131.015625 18.355469 C 127.972656 19.023438 124.953125 19.789062 121.957031 20.648438 C 118.960938 21.511719 115.996094 22.464844 113.0625 23.515625 C 110.125 24.5625 107.226562 25.703125 104.363281 26.933594 C 101.5 28.164062 98.679688 29.488281 95.898438 30.898438 C 93.121094 32.308594 90.386719 33.804688 87.703125 35.386719 C 85.015625 36.96875 82.382812 38.632812 79.804688 40.382812 C 77.226562 42.132812 74.703125 43.960938 72.238281 45.871094 C 69.773438 47.777344 67.371094 49.761719 65.035156 51.824219 C 62.695312 53.882812 60.425781 56.015625 58.21875 58.21875 C 56.015625 60.425781 53.882812 62.695312 51.824219 65.035156 C 49.761719 67.375 47.777344 69.773438 45.871094 72.238281 C 43.960938 74.703125 42.132812 77.226562 40.382812 79.804688 C 38.632812 82.386719 36.96875 85.015625 35.386719 87.703125 C 33.804688 90.386719 32.304688 93.121094 30.894531 95.898438 C 29.488281 98.679688 28.164062 101.5 26.933594 104.363281 C 25.703125 107.226562 24.5625 110.125 23.515625 113.0625 C 22.464844 115.996094 21.511719 118.960938 20.648438 121.957031 C 19.789062 124.953125 19.023438 127.972656 18.351562 131.019531 C 17.683594 134.0625 17.109375 137.125 16.632812 140.203125 C 16.15625 143.285156 15.777344 146.375 15.496094 149.480469 C 15.214844 152.585938 15.035156 155.695312 14.949219 158.8125 C 14.863281 161.925781 14.878906 165.042969 14.992188 168.15625 C 15.105469 171.273438 15.3125 174.378906 15.625 177.480469 C 15.933594 180.582031 16.339844 183.671875 16.84375 186.746094 C 17.347656 189.824219 17.949219 192.878906 18.644531 195.917969 C 19.34375 198.957031 20.136719 201.96875 21.023438 204.957031 C 21.910156 207.945312 22.894531 210.902344 23.96875 213.828125 C 25.042969 216.753906 26.207031 219.640625 27.464844 222.492188 C 28.722656 225.34375 30.070312 228.15625 31.503906 230.921875 C 32.941406 233.6875 34.460938 236.40625 36.066406 239.078125 C 37.675781 241.75 39.363281 244.367188 41.136719 246.929688 C 42.910156 249.492188 44.761719 252 46.691406 254.445312 C 48.621094 256.894531 50.628906 259.277344 52.710938 261.597656 C 54.792969 263.917969 56.945312 266.167969 59.167969 268.351562 C 61.390625 270.535156 63.683594 272.648438 66.039062 274.6875 C 68.394531 276.726562 70.816406 278.691406 73.296875 280.574219 C 75.777344 282.460938 78.316406 284.269531 80.910156 285.996094 C 83.507812 287.71875 86.15625 289.363281 88.855469 290.921875 C 91.554688 292.480469 94.300781 293.949219 97.089844 295.335938 C 99.882812 296.71875 102.71875 298.015625 105.589844 299.222656 C 108.464844 300.425781 111.375 301.542969 114.320312 302.5625 C 117.265625 303.585938 120.238281 304.511719 123.242188 305.347656 C 126.246094 306.179688 129.269531 306.917969 132.320312 307.5625 C 135.371094 308.203125 138.4375 308.75 141.523438 309.199219 C 144.605469 309.648438 147.703125 310 150.808594 310.25 C 153.914062 310.503906 157.027344 310.660156 160.144531 310.714844 C 163.261719 310.773438 166.375 310.730469 169.488281 310.589844 C 172.601562 310.449219 175.707031 310.210938 178.808594 309.871094 C 181.90625 309.535156 184.992188 309.101562 188.0625 308.570312 C 191.132812 308.039062 194.183594 307.410156 197.214844 306.683594 C 200.246094 305.960938 203.253906 305.140625 206.234375 304.226562 C 209.210938 303.308594 212.160156 302.300781 215.074219 301.199219 C 217.992188 300.097656 220.871094 298.90625 223.710938 297.625 C 226.550781 296.339844 229.347656 294.96875 232.101562 293.511719 C 234.855469 292.050781 237.5625 290.503906 240.21875 288.875 C 242.875 287.242188 245.476562 285.53125 248.023438 283.734375 C 250.570312 281.9375 253.058594 280.066406 255.488281 278.113281 L 346.410156 369.035156 C 346.78125 369.402344 347.167969 369.753906 347.574219 370.085938 C 347.980469 370.414062 348.398438 370.726562 348.835938 371.015625 C 349.269531 371.304688 349.71875 371.574219 350.179688 371.820312 C 350.644531 372.066406 351.117188 372.289062 351.597656 372.488281 C 352.082031 372.6875 352.574219 372.863281 353.078125 373.015625 C 353.578125 373.167969 354.085938 373.292969 354.597656 373.394531 C 355.113281 373.496094 355.628906 373.574219 356.148438 373.621094 C 356.671875 373.671875 357.191406 373.699219 357.714844 373.699219 C 358.238281 373.699219 358.761719 373.671875 359.28125 373.621094 C 359.800781 373.570312 360.320312 373.492188 360.832031 373.390625 C 361.347656 373.285156 361.851562 373.160156 362.351562 373.007812 C 362.855469 372.855469 363.347656 372.679688 363.828125 372.476562 C 364.3125 372.277344 364.785156 372.054688 365.246094 371.808594 C 365.707031 371.558594 366.15625 371.292969 366.589844 371 C 367.027344 370.710938 367.445312 370.398438 367.851562 370.066406 C 368.253906 369.734375 368.640625 369.382812 369.011719 369.011719 C 369.382812 368.644531 369.734375 368.257812 370.066406 367.851562 C 370.398438 367.445312 370.710938 367.027344 371 366.59375 C 371.289062 366.15625 371.558594 365.707031 371.804688 365.246094 C 372.054688 364.785156 372.277344 364.3125 372.476562 363.832031 C 372.679688 363.347656 372.855469 362.855469 373.007812 362.355469 C 373.160156 361.851562 373.285156 361.347656 373.386719 360.832031 C 373.492188 360.320312 373.566406 359.804688 373.621094 359.28125 C 373.671875 358.761719 373.699219 358.238281 373.699219 357.714844 C 373.699219 357.191406 373.671875 356.671875 373.621094 356.148438 C 373.570312 355.628906 373.496094 355.113281 373.394531 354.597656 C 373.292969 354.085938 373.167969 353.578125 373.015625 353.078125 C 372.863281 352.578125 372.6875 352.082031 372.488281 351.601562 C 372.289062 351.117188 372.066406 350.644531 371.820312 350.183594 C 371.574219 349.71875 371.304688 349.269531 371.015625 348.835938 C 370.726562 348.398438 370.414062 347.980469 370.082031 347.574219 C 369.753906 347.167969 369.402344 346.78125 369.03125 346.410156 Z M 47.355469 163.050781 C 47.355469 161.15625 47.402344 159.261719 47.496094 157.371094 C 47.585938 155.480469 47.726562 153.59375 47.910156 151.707031 C 48.097656 149.824219 48.328125 147.945312 48.605469 146.074219 C 48.886719 144.199219 49.207031 142.335938 49.578125 140.476562 C 49.949219 138.621094 50.363281 136.773438 50.820312 134.9375 C 51.28125 133.101562 51.785156 131.277344 52.335938 129.464844 C 52.886719 127.652344 53.480469 125.855469 54.117188 124.074219 C 54.753906 122.289062 55.4375 120.523438 56.160156 118.773438 C 56.886719 117.027344 57.652344 115.296875 58.460938 113.582031 C 59.273438 111.871094 60.125 110.179688 61.015625 108.511719 C 61.910156 106.839844 62.839844 105.195312 63.816406 103.570312 C 64.789062 101.945312 65.800781 100.347656 66.851562 98.773438 C 67.90625 97.199219 68.996094 95.652344 70.121094 94.128906 C 71.25 92.609375 72.414062 91.117188 73.617188 89.652344 C 74.816406 88.191406 76.054688 86.757812 77.324219 85.355469 C 78.597656 83.949219 79.902344 82.578125 81.242188 81.242188 C 82.578125 79.902344 83.949219 78.597656 85.355469 77.324219 C 86.757812 76.054688 88.191406 74.816406 89.652344 73.617188 C 91.117188 72.414062 92.609375 71.25 94.128906 70.121094 C 95.652344 68.996094 97.199219 67.90625 98.773438 66.851562 C 100.347656 65.800781 101.945312 64.789062 103.570312 63.816406 C 105.195312 62.839844 106.839844 61.910156 108.511719 61.015625 C 110.179688 60.125 111.871094 59.273438 113.582031 58.460938 C 115.296875 57.652344 117.027344 56.886719 118.773438 56.160156 C 120.523438 55.4375 122.289062 54.753906 124.074219 54.117188 C 125.855469 53.480469 127.652344 52.886719 129.464844 52.335938 C 131.277344 51.785156 133.101562 51.28125 134.9375 50.820312 C 136.773438 50.363281 138.621094 49.949219 140.476562 49.578125 C 142.335938 49.207031 144.199219 48.886719 146.074219 48.605469 C 147.945312 48.328125 149.824219 48.097656 151.707031 47.910156 C 153.59375 47.726562 155.480469 47.585938 157.371094 47.496094 C 159.261719 47.402344 161.15625 47.355469 163.050781 47.355469 C 164.941406 47.355469 166.835938 47.402344 168.726562 47.496094 C 170.617188 47.585938 172.503906 47.726562 174.390625 47.910156 C 176.273438 48.097656 178.152344 48.328125 180.023438 48.605469 C 181.898438 48.886719 183.761719 49.207031 185.621094 49.578125 C 187.476562 49.949219 189.324219 50.363281 191.160156 50.820312 C 192.996094 51.28125 194.820312 51.785156 196.632812 52.335938 C 198.445312 52.886719 200.242188 53.480469 202.023438 54.117188 C 203.808594 54.753906 205.574219 55.4375 207.324219 56.160156 C 209.070312 56.886719 210.800781 57.652344 212.515625 58.460938 C 214.226562 59.273438 215.917969 60.125 217.585938 61.015625 C 219.257812 61.910156 220.902344 62.839844 222.527344 63.816406 C 224.152344 64.789062 225.75 65.800781 227.324219 66.851562 C 228.898438 67.90625 230.445312 68.996094 231.96875 70.121094 C 233.488281 71.25 234.980469 72.414062 236.445312 73.617188 C 237.90625 74.816406 239.339844 76.054688 240.742188 77.324219 C 242.148438 78.597656 243.519531 79.902344 244.855469 81.242188 C 246.195312 82.578125 247.5 83.949219 248.773438 85.355469 C 250.042969 86.757812 251.28125 88.191406 252.480469 89.652344 C 253.683594 91.117188 254.847656 92.609375 255.976562 94.128906 C 257.101562 95.652344 258.191406 97.199219 259.246094 98.773438 C 260.296875 100.347656 261.308594 101.945312 262.28125 103.570312 C 263.257812 105.195312 264.1875 106.839844 265.082031 108.511719 C 265.972656 110.179688 266.824219 111.871094 267.636719 113.582031 C 268.445312 115.296875 269.210938 117.027344 269.9375 118.773438 C 270.660156 120.523438 271.34375 122.289062 271.980469 124.074219 C 272.617188 125.855469 273.210938 127.652344 273.761719 129.464844 C 274.3125 131.277344 274.816406 133.101562 275.277344 134.9375 C 275.734375 136.773438 276.148438 138.621094 276.519531 140.476562 C 276.890625 142.335938 277.210938 144.199219 277.492188 146.074219 C 277.769531 147.945312 278 149.824219 278.1875 151.707031 C 278.371094 153.59375 278.511719 155.480469 278.601562 157.371094 C 278.695312 159.261719 278.742188 161.15625 278.742188 163.046875 C 278.742188 164.941406 278.695312 166.835938 278.601562 168.726562 C 278.511719 170.617188 278.371094 172.503906 278.1875 174.390625 C 278 176.273438 277.769531 178.152344 277.492188 180.023438 C 277.210938 181.898438 276.890625 183.761719 276.519531 185.621094 C 276.148438 187.476562 275.734375 189.324219 275.277344 191.160156 C 274.816406 192.996094 274.3125 194.820312 273.761719 196.632812 C 273.210938 198.445312 272.617188 200.242188 271.980469 202.023438 C 271.34375 203.808594 270.660156 205.574219 269.9375 207.324219 C 269.210938 209.070312 268.445312 210.800781 267.636719 212.515625 C 266.824219 214.226562 265.972656 215.917969 265.082031 217.585938 C 264.1875 219.257812 263.257812 220.902344 262.28125 222.527344 C 261.308594 224.152344 260.296875 225.75 259.246094 227.324219 C 258.191406 228.898438 257.101562 230.445312 255.976562 231.96875 C 254.847656 233.488281 253.683594 234.980469 252.480469 236.445312 C 251.28125 237.90625 250.042969 239.339844 248.773438 240.742188 C 247.5 242.148438 246.195312 243.519531 244.855469 244.855469 C 243.519531 246.195312 242.148438 247.5 240.742188 248.773438 C 239.339844 250.042969 237.90625 251.28125 236.445312 252.480469 C 234.980469 253.683594 233.488281 254.847656 231.96875 255.976562 C 230.445312 257.101562 228.898438 258.191406 227.324219 259.246094 C 225.75 260.296875 224.152344 261.308594 222.527344 262.28125 C 220.902344 263.257812 219.257812 264.1875 217.585938 265.082031 C 215.917969 265.972656 214.226562 266.824219 212.515625 267.636719 C 210.804688 268.445312 209.074219 269.210938 207.324219 269.9375 C 205.574219 270.660156 203.808594 271.34375 202.023438 271.980469 C 200.242188 272.617188 198.445312 273.210938 196.632812 273.761719 C 194.820312 274.3125 192.996094 274.816406 191.160156 275.277344 C 189.324219 275.734375 187.476562 276.148438 185.621094 276.519531 C 183.761719 276.890625 181.898438 277.210938 180.023438 277.492188 C 178.152344 277.769531 176.273438 278 174.390625 278.1875 C 172.503906 278.371094 170.617188 278.511719 168.726562 278.601562 C 166.835938 278.695312 164.941406 278.742188 163.050781 278.742188 C 161.15625 278.742188 159.265625 278.691406 157.375 278.597656 C 155.484375 278.503906 153.597656 278.359375 151.714844 278.171875 C 149.828125 277.984375 147.953125 277.753906 146.078125 277.472656 C 144.207031 277.195312 142.34375 276.867188 140.488281 276.496094 C 138.632812 276.128906 136.785156 275.710938 134.949219 275.25 C 133.113281 274.789062 131.289062 274.28125 129.480469 273.730469 C 127.667969 273.179688 125.871094 272.585938 124.089844 271.945312 C 122.308594 271.308594 120.542969 270.625 118.796875 269.902344 C 117.046875 269.175781 115.316406 268.40625 113.605469 267.597656 C 111.894531 266.789062 110.207031 265.9375 108.539062 265.042969 C 106.867188 264.148438 105.222656 263.214844 103.597656 262.242188 C 101.976562 261.269531 100.378906 260.257812 98.804688 259.203125 C 97.230469 258.152344 95.683594 257.0625 94.164062 255.933594 C 92.644531 254.804688 91.152344 253.640625 89.6875 252.441406 C 88.226562 251.238281 86.792969 250.003906 85.390625 248.734375 C 83.988281 247.460938 82.617188 246.15625 81.28125 244.816406 C 79.941406 243.480469 78.636719 242.109375 77.363281 240.707031 C 76.09375 239.304688 74.859375 237.871094 73.65625 236.410156 C 72.457031 234.945312 71.292969 233.453125 70.164062 231.933594 C 69.035156 230.414062 67.945312 228.867188 66.894531 227.292969 C 65.839844 225.71875 64.828125 224.121094 63.855469 222.5 C 62.882812 220.875 61.949219 219.230469 61.054688 217.558594 C 60.160156 215.890625 59.308594 214.203125 58.5 212.492188 C 57.691406 210.78125 56.921875 209.050781 56.195312 207.300781 C 55.472656 205.554688 54.789062 203.789062 54.152344 202.007812 C 53.511719 200.226562 52.917969 198.429688 52.367188 196.617188 C 51.816406 194.808594 51.308594 192.984375 50.847656 191.148438 C 50.386719 189.3125 49.96875 187.464844 49.601562 185.609375 C 49.230469 183.753906 48.902344 181.890625 48.625 180.019531 C 48.34375 178.144531 48.113281 176.269531 47.925781 174.382812 C 47.738281 172.5 47.59375 170.613281 47.5 168.722656 C 47.40625 166.832031 47.355469 164.941406 47.355469 163.050781 Z M 47.355469 163.050781 " fill-opacity="1" fill-rule="nonzero"/></svg>